<?xml version="1.0" encoding="UTF-8" standalone="no"?>
<!-- Created with Inkscape (http://www.inkscape.org/) -->
<svg xmlns:dc="http://purl.org/dc/elements/1.1/" xmlns:cc="http://web.resource.org/cc/" xmlns:rdf="http://www.w3.org/1999/02/22-rdf-syntax-ns#" xmlns:svg="http://www.w3.org/2000/svg" xmlns="http://www.w3.org/2000/svg" xmlns:xlink="http://www.w3.org/1999/xlink" xmlns:sodipodi="http://sodipodi.sourceforge.net/DTD/sodipodi-0.dtd" xmlns:inkscape="http://www.inkscape.org/namespaces/inkscape" id="svg1" sodipodi:version="0.32" inkscape:version="0.44.1" width="407.91528" height="570.61102" sodipodi:docbase="/home/glibersat/Desktop" sodipodi:docname="glibersat_Hard_drive.svg" version="1.0">
  <metadata id="metadata50">
    <rdf:RDF>
      <cc:Work rdf:about="">
        <dc:format>image/svg+xml</dc:format>
        <dc:type rdf:resource="http://purl.org/dc/dcmitype/StillImage"/>
      </cc:Work>
    </rdf:RDF>
  </metadata>
  <defs id="defs3">
    <linearGradient id="linearGradient862">
      <stop style="stop-color:#f7c87d;stop-opacity:1.0000000;" offset="0.0000000" id="stop863"/>
      <stop style="stop-color:#c6a550;stop-opacity:1.0000000;" offset="1.0000000" id="stop864"/>
    </linearGradient>
    <linearGradient id="linearGradient830">
      <stop style="stop-color:#ffffff;stop-opacity:1.0000000;" offset="0.0000000" id="stop831"/>
      <stop style="stop-color:#ababad;stop-opacity:1.0000000;" offset="1.0000000" id="stop832"/>
    </linearGradient>
    <radialGradient xlink:href="#linearGradient830" id="radialGradient833" cx="0.5" cy="0.5" r="0.47985345" fx="0.5" fy="0.5"/>
    <linearGradient xlink:href="#linearGradient830" id="linearGradient834" x1="-0.22826087" y1="0.484375" x2="0.69565219" y2="0.359375"/>
    <radialGradient xlink:href="#linearGradient830" id="radialGradient859" cx="0.5" cy="0.5" r="0.53947043" fx="0.5" fy="0.5"/>
    <radialGradient xlink:href="#linearGradient830" id="radialGradient860" cx="0.5" cy="0.5" r="0.34650627" fx="0.5" fy="0.5"/>
    <radialGradient xlink:href="#linearGradient862" id="radialGradient861" cx="0.5" cy="0.5" r="0.24726701" fx="0.5" fy="0.5"/>
    <radialGradient xlink:href="#linearGradient862" id="radialGradient865" cx="0.5" cy="0.5" r="0.25384647" fx="0.5" fy="0.5"/>
    <radialGradient xlink:href="#linearGradient862" id="radialGradient866" cx="0.5" cy="0.5" r="0.28472209" fx="0.5" fy="0.5"/>
    <radialGradient xlink:href="#linearGradient862" id="radialGradient867" cx="0.5" cy="0.5" r="0.2769222" fx="0.5" fy="0.5"/>
    <radialGradient xlink:href="#linearGradient862" id="radialGradient868" cx="0.5" cy="0.5" r="0.28948388" fx="0.5" fy="0.5"/>
    <radialGradient xlink:href="#linearGradient862" id="radialGradient869" cx="1.3615378" cy="0.66406173" r="0.0076923361" fx="1.3615378" fy="0.66406173"/>
    <linearGradient inkscape:collect="always" xlink:href="#linearGradient830" id="linearGradient1941" x1="71.322964" y1="472.35878" x2="517.06765" y2="412.05215" gradientTransform="scale(0.845503,1.182729)" gradientUnits="userSpaceOnUse"/>
    <radialGradient inkscape:collect="always" xlink:href="#linearGradient830" id="radialGradient1943" cx="327.1274" cy="494.68187" fx="327.1274" fy="494.68187" r="185.87907" gradientTransform="scale(1.090402,0.917093)" gradientUnits="userSpaceOnUse"/>
    <radialGradient inkscape:collect="always" xlink:href="#linearGradient830" id="radialGradient1945" cx="424.54403" cy="490.95144" fx="424.54403" fy="490.95144" r="211.68493" gradientTransform="scale(0.844323,1.184381)" gradientUnits="userSpaceOnUse"/>
    <radialGradient inkscape:collect="always" xlink:href="#linearGradient830" id="radialGradient1947" cx="183.54478" cy="307.38632" fx="183.54478" fy="307.38632" r="11.14727" gradientUnits="userSpaceOnUse"/>
    <radialGradient inkscape:collect="always" xlink:href="#linearGradient862" id="radialGradient1949" cx="537.49829" cy="832.28839" fx="537.49829" fy="832.28839" r="5.827563" gradientUnits="userSpaceOnUse"/>
    <radialGradient inkscape:collect="always" xlink:href="#linearGradient862" id="radialGradient1951" cx="537.49829" cy="832.28839" fx="537.49829" fy="832.28839" r="5.9917043" gradientUnits="userSpaceOnUse"/>
    <radialGradient inkscape:collect="always" xlink:href="#linearGradient862" id="radialGradient1953" cx="537.49829" cy="832.28839" fx="537.49829" fy="832.28839" r="5.2034979" gradientUnits="userSpaceOnUse"/>
    <radialGradient inkscape:collect="always" xlink:href="#linearGradient862" id="radialGradient1955" cx="537.49829" cy="832.28839" fx="537.49829" fy="832.28839" r="5.3419563" gradientUnits="userSpaceOnUse"/>
    <radialGradient inkscape:collect="always" xlink:href="#linearGradient862" id="radialGradient1957" cx="555.62853" cy="835.74091" fx="555.62853" fy="835.74091" r="0.16187786" gradientUnits="userSpaceOnUse"/>
    <radialGradient inkscape:collect="always" xlink:href="#linearGradient862" id="radialGradient1959" cx="537.49829" cy="832.28839" fx="537.49829" fy="832.28839" r="6.0919115" gradientUnits="userSpaceOnUse"/>
  </defs>
  <sodipodi:namedview id="base" pagecolor="#ffffff" bordercolor="#666666" borderopacity="1.0" inkscape:pageopacity="0.0" inkscape:pageshadow="2" inkscape:zoom="0.86831672" inkscape:cx="22.761675" inkscape:cy="427.75979" inkscape:window-width="1678" inkscape:window-height="1014" inkscape:window-x="0" inkscape:window-y="0" inkscape:current-layer="svg1"/>
  <g id="g1916" transform="translate(-153.4148,-282.2825)">
    <rect y="282.91367" x="154.04601" rx="6.6526628" height="569.34869" width="406.65298" id="rect841" style="fill:url(#linearGradient1941);fill-opacity:0.75;fill-rule:evenodd;stroke:black;stroke-width:1.0098484pt;stroke-opacity:1" ry="6.6526628"/>
    <path sodipodi:nodetypes="cssccccc" id="path842" d="M 220.25373,610.41515 C 167.34965,552.47258 121.08961,389.91593 275.49711,315.57386 C 345.61344,281.98845 425.67588,295.64612 478.74403,341.44444 C 561.89466,413.92401 548.65492,549.59345 526.88148,552.11269 C 519.68365,546.1145 517.5243,528.59976 526.88148,503.8872 C 554.95304,370.00748 354.13345,208.77599 211.61633,391.60098 C 209.69691,402.87759 303.50869,558.83066 300.86948,565.78857 C 298.4702,571.30692 247.12565,595.53962 220.25373,610.41515 z " style="fill:url(#radialGradient1943);fill-opacity:0.75;fill-rule:evenodd;stroke:#2b3510;stroke-width:2.5;stroke-linecap:butt;stroke-linejoin:miter;stroke-dasharray:none;stroke-opacity:1"/>
    <path sodipodi:nodetypes="ccccccccccccccccccc" id="path844" d="M 173.46781,654.32194 C 173.70774,701.34779 173.94766,748.37364 174.18759,795.39949 C 173.94766,803.79697 177.30666,808.59552 186.42391,809.79516 C 196.74081,814.83364 204.89835,822.03149 206.57785,835.70737 C 256.48284,837.62679 306.38782,839.54621 356.29281,841.46563 C 365.17014,838.34657 371.88811,828.74946 376.44674,819.15235 C 407.1575,818.43257 437.86826,817.71278 468.57902,816.993 C 475.53693,819.39228 481.77505,824.67069 485.13404,832.82823 C 497.85021,837.86672 509.12682,836.42715 514.64516,817.71278 C 523.52249,805.95632 541.75701,807.87573 543.4365,801.87754 C 543.4365,751.97256 543.4365,702.06757 543.4365,652.16259 C 541.757,647.36404 540.07752,641.12591 523.28257,639.92627 C 517.04444,637.52699 510.80633,635.8475 508.8869,621.93168 C 508.8869,591.46085 508.8869,560.99001 508.8869,530.51918 C 544.39622,428.78979 466.89953,339.29671 390.84241,324.66112 C 304.4684,311.70502 273.51771,339.05679 222.41308,393.76033 C 219.77387,399.27867 281.91518,502.68756 311.66623,557.15117 C 312.86587,565.30872 313.34573,571.30691 308.7871,577.30511 C 263.68067,602.97739 218.57424,628.64966 173.46781,654.32194 z " style="fill:url(#radialGradient1945);fill-opacity:0.75;fill-rule:evenodd;stroke:#2b3510;stroke-width:2.5"/>
    <path transform="translate(-0.719783,-0.719783)" d="M 190.74262 622.65149 A 7.5577264 7.1978345 0 1 1  175.62716,622.65149 A 7.5577264 7.1978345 0 1 1  190.74262 622.65149 z" sodipodi:ry="7.1978345" sodipodi:rx="7.5577264" sodipodi:cy="622.65149" sodipodi:cx="183.18489" id="path845" style="fill:none;fill-opacity:0.75;fill-rule:evenodd;stroke:black;stroke-width:1pt" sodipodi:type="arc"/>
    <path transform="translate(-5.758268,-2.15935)" d="M 199.38002 307.38632 A 15.835236 15.835236 0 1 1  167.70955,307.38632 A 15.835236 15.835236 0 1 1  199.38002 307.38632 z" sodipodi:ry="15.835236" sodipodi:rx="15.835236" sodipodi:cy="307.38632" sodipodi:cx="183.54478" id="path846" style="fill:url(#radialGradient1947);fill-opacity:0.75;fill-rule:evenodd;stroke:black;stroke-width:0.5;stroke-dasharray:none" sodipodi:type="arc"/>
    <path transform="translate(349.095,-5.758281)" d="M 199.38002 307.38632 A 15.835236 15.835236 0 1 1  167.70955,307.38632 A 15.835236 15.835236 0 1 1  199.38002 307.38632 z" sodipodi:ry="15.835236" sodipodi:rx="15.835236" sodipodi:cy="307.38632" sodipodi:cx="183.54478" id="path847" style="fill:none;fill-opacity:0.75;fill-rule:evenodd;stroke:black;stroke-width:1pt" sodipodi:type="arc"/>
    <path transform="translate(353.4137,524.7221)" d="M 199.38002 307.38632 A 15.835236 15.835236 0 1 1  167.70955,307.38632 A 15.835236 15.835236 0 1 1  199.38002 307.38632 z" sodipodi:ry="15.835236" sodipodi:rx="15.835236" sodipodi:cy="307.38632" sodipodi:cx="183.54478" id="path848" style="fill:none;fill-opacity:0.75;fill-rule:evenodd;stroke:black;stroke-width:1pt" sodipodi:type="arc"/>
    <path transform="translate(-4.318727,524.7221)" d="M 199.38002 307.38632 A 15.835236 15.835236 0 1 1  167.70955,307.38632 A 15.835236 15.835236 0 1 1  199.38002 307.38632 z" sodipodi:ry="15.835236" sodipodi:rx="15.835236" sodipodi:cy="307.38632" sodipodi:cx="183.54478" id="path849" style="fill:none;fill-opacity:0.75;fill-rule:evenodd;stroke:black;stroke-width:1pt" sodipodi:type="arc"/>
    <path transform="matrix(1.196795,0,0,1,-38.10825,-2.15935)" sodipodi:end="7.8639316" sodipodi:start="4.7206807" d="M 161.79132,573.70669 A 24.112745,14.395669 0 1 1 161.35147,602.49682 L 161.59138,588.10187 z" sodipodi:ry="14.395669" sodipodi:rx="24.112745" sodipodi:cy="588.10187" sodipodi:cx="161.59138" id="path850" style="fill:none;fill-opacity:0.75;fill-rule:evenodd;stroke:black;stroke-width:1pt" sodipodi:type="arc"/>
    <path transform="matrix(-1.224909,0,0,1,757.4318,-5.038725)" sodipodi:end="7.8639316" sodipodi:start="4.7206807" d="M 161.79132,573.70669 A 24.112745,14.395669 0 1 1 161.35147,602.49682 L 161.59138,588.10187 z" sodipodi:ry="14.395669" sodipodi:rx="24.112745" sodipodi:cy="588.10187" sodipodi:cx="161.59138" id="path851" style="fill:none;fill-opacity:0.75;fill-rule:evenodd;stroke:black;stroke-width:1pt" sodipodi:type="arc"/>
    <rect transform="matrix(0.993767,-0.111476,0.111476,0.993767,0,0)" y="368.09857" x="284.57831" rx="0" height="23.392965" width="51.464523" id="rect852" style="fill:#ffbd37;fill-opacity:0.33064521;fill-rule:evenodd;stroke:black;stroke-width:0.12500001;stroke-dasharray:none"/>
    <path transform="translate(-0.359892,-0.359892)" d="M 547.39531 832.28839 A 9.8970222 9.8970222 0 1 1  527.60127,832.28839 A 9.8970222 9.8970222 0 1 1  547.39531 832.28839 z" sodipodi:ry="9.8970222" sodipodi:rx="9.8970222" sodipodi:cy="832.28839" sodipodi:cx="537.49829" id="path853" style="fill:url(#radialGradient1949);fill-opacity:0.75;fill-rule:evenodd;stroke:black;stroke-width:1pt" sodipodi:type="arc"/>
    <path transform="translate(-358.2722,-0.17989)" d="M 547.39531 832.28839 A 9.8970222 9.8970222 0 1 1  527.60127,832.28839 A 9.8970222 9.8970222 0 1 1  547.39531 832.28839 z" sodipodi:ry="9.8970222" sodipodi:rx="9.8970222" sodipodi:cy="832.28839" sodipodi:cx="537.49829" id="path854" style="fill:url(#radialGradient1951);fill-opacity:0.75;fill-rule:evenodd;stroke:black;stroke-width:1pt" sodipodi:type="arc"/>
    <path transform="translate(-359.7118,-527.0615)" d="M 547.39531 832.28839 A 9.8970222 9.8970222 0 1 1  527.60127,832.28839 A 9.8970222 9.8970222 0 1 1  547.39531 832.28839 z" sodipodi:ry="9.8970222" sodipodi:rx="9.8970222" sodipodi:cy="832.28839" sodipodi:cx="537.49829" id="path855" style="fill:url(#radialGradient1953);fill-opacity:0.75;fill-rule:evenodd;stroke:black;stroke-width:1pt" sodipodi:type="arc"/>
    <path transform="translate(-4.858588,-530.6603)" d="M 547.39531 832.28839 A 9.8970222 9.8970222 0 1 1  527.60127,832.28839 A 9.8970222 9.8970222 0 1 1  547.39531 832.28839 z" sodipodi:ry="9.8970222" sodipodi:rx="9.8970222" sodipodi:cy="832.28839" sodipodi:cx="537.49829" id="path856" style="fill:url(#radialGradient1955);fill-opacity:0.75;fill-rule:evenodd;stroke:black;stroke-width:1pt" sodipodi:type="arc"/>
    <path transform="translate(10.25691,-249.225)" d="M 547.39531 832.28839 A 9.8970222 9.8970222 0 1 1  527.60127,832.28839 A 9.8970222 9.8970222 0 1 1  547.39531 832.28839 z" sodipodi:ry="9.8970222" sodipodi:rx="9.8970222" sodipodi:cy="832.28839" sodipodi:cx="537.49829" id="path857" style="fill:url(#radialGradient1957);fill-opacity:0.75;fill-rule:evenodd;stroke:black;stroke-width:1pt" sodipodi:type="arc"/>
    <path transform="translate(-369.7888,-246.3459)" d="M 547.39531 832.28839 A 9.8970222 9.8970222 0 1 1  527.60127,832.28839 A 9.8970222 9.8970222 0 1 1  547.39531 832.28839 z" sodipodi:ry="9.8970222" sodipodi:rx="9.8970222" sodipodi:cy="832.28839" sodipodi:cx="537.49829" id="path858" style="fill:url(#radialGradient1959);fill-opacity:0.75;fill-rule:evenodd;stroke:black;stroke-width:1pt" sodipodi:type="arc"/>
    <rect y="626.97015" x="299.4299" rx="3.1557906" height="121.6434" width="192.90196" id="rect843" style="fill:black;fill-opacity:0.68548387;fill-rule:evenodd;stroke:black;stroke-width:1pt" ry="3.1557906"/>
    <path id="text870" d="M 313.79241,650.59702 C 314.1524,651.55702 314.5724,652.12102 315.05241,652.28902 C 315.1964,652.33702 315.3524,652.36102 315.52041,652.36102 C 316.1444,652.36102 316.6124,652.09702 316.92441,651.56902 C 317.0564,651.35302 317.1344,651.11302 317.15841,650.84902 C 317.1824,650.63302 317.2484,650.52502 317.35641,650.52502 C 317.4884,650.52502 317.5544,650.65102 317.55441,650.90302 C 317.5544,651.89902 317.3384,652.72102 316.90641,653.36902 C 316.5224,653.93302 316.0124,654.21502 315.37641,654.21502 C 314.5004,654.21502 313.8944,653.71102 313.55841,652.70302 C 313.45041,652.34302 313.32441,651.72502 313.18041,650.84902 C 312.60441,651.02902 312.03441,651.11902 311.47041,651.11902 C 309.87441,651.11902 308.50041,650.52502 307.34841,649.33702 C 306.16041,648.12503 305.53641,646.63103 305.47641,644.85502 L 305.47641,644.62102 C 305.47641,642.79703 306.06441,641.24303 307.24041,639.95902 C 308.34441,638.74703 309.66441,638.10504 311.20041,638.03302 L 311.45241,638.03302 C 313.02441,638.03304 314.3924,638.62703 315.55641,639.81502 C 316.7444,641.03903 317.3744,642.53903 317.44641,644.31502 L 317.44641,644.62102 C 317.4464,646.39703 316.8764,647.91503 315.73641,649.17502 C 315.1724,649.79902 314.5244,650.27302 313.79241,650.59702 M 310.26441,650.43502 C 310.09641,650.09902 310.01241,649.81102 310.01241,649.57102 C 310.01241,649.01902 310.23441,648.59902 310.67841,648.31102 L 310.69641,648.29302 C 310.92441,648.13703 311.18841,648.05903 311.48841,648.05902 C 312.34041,648.05903 313.01841,648.69502 313.52241,649.96702 C 314.9384,648.92302 315.6464,647.14103 315.64641,644.62102 C 315.6464,642.10103 314.9624,640.31303 313.59441,639.25702 C 312.93441,638.74103 312.22041,638.48303 311.45241,638.48302 C 310.45641,638.48303 309.57441,638.89703 308.80641,639.72502 C 308.80641,639.73703 308.80041,639.74303 308.78841,639.74302 C 307.78041,640.85903 307.27641,642.48503 307.27641,644.62102 C 307.27641,647.17703 307.99641,648.96502 309.43641,649.98502 C 309.70041,650.17702 309.97641,650.32702 310.26441,650.43502 M 313.05441,650.25502 C 312.83841,649.13902 312.38241,648.54502 311.68641,648.47302 C 311.62641,648.46102 311.56041,648.45502 311.48841,648.45502 C 311.00841,648.45502 310.67841,648.68302 310.49841,649.13902 C 310.43841,649.28302 310.40841,649.42702 310.40841,649.57102 C 310.40841,650.00302 310.57041,650.32102 310.89441,650.52502 L 310.91241,650.52502 C 311.06841,650.62102 311.25441,650.66902 311.47041,650.66902 C 312.03441,650.66902 312.56241,650.53102 313.05441,650.25502 M 334.8226,640.19302 L 331.3846,650.75902 C 331.25259,650.97502 331.13259,651.09502 331.0246,651.11902 C 330.86859,651.11902 330.75459,651.00502 330.6826,650.77702 L 327.6946,641.61502 L 324.7246,650.75902 C 324.5926,650.97502 324.4726,651.09502 324.3646,651.11902 C 324.2086,651.11902 324.0946,651.00502 324.0226,650.77702 L 320.4226,639.74302 C 320.3146,639.39503 320.1826,639.18503 320.0266,639.11302 C 319.8466,639.02903 319.4326,638.98703 318.7846,638.98702 L 318.7846,638.42902 C 320.2606,638.46503 320.9926,638.48303 320.9806,638.48302 C 322.2526,638.48303 323.1046,638.46503 323.5366,638.42902 L 323.5366,638.98702 C 322.5286,638.98703 322.0246,639.16703 322.0246,639.52702 C 322.0246,639.61103 322.0366,639.68903 322.0606,639.76102 L 324.9586,648.61702 L 327.4606,640.89502 L 327.0646,639.63502 C 326.94459,639.28703 326.72259,639.08303 326.3986,639.02302 C 326.24259,638.99903 325.92459,638.98703 325.4446,638.98702 L 325.4446,638.42902 C 326.92059,638.46503 327.65259,638.48303 327.6406,638.48302 C 328.91259,638.48303 329.76459,638.46503 330.1966,638.42902 L 330.1966,638.98702 C 329.18859,638.98703 328.68459,639.16703 328.6846,639.52702 C 328.68459,639.56303 328.70259,639.65303 328.7386,639.79702 L 331.6186,648.61702 L 334.3186,640.30102 C 334.37859,640.12103 334.40859,640.00103 334.4086,639.94102 C 334.40859,639.61703 334.21059,639.36503 333.8146,639.18502 C 333.55059,639.05303 333.22659,638.98703 332.8426,638.98702 L 332.8426,638.42902 C 333.77859,638.46503 334.49259,638.48303 334.9846,638.48302 C 335.53658,638.48303 336.08258,638.46503 336.6226,638.42902 L 336.6226,638.98702 C 335.67458,638.98703 335.07459,639.38903 334.8226,640.19302 M 344.11679,638.19502 L 348.00479,649.44502 C 348.12478,649.79302 348.31678,650.00302 348.58079,650.07502 C 348.82078,650.13502 349.13878,650.16502 349.53479,650.16502 L 349.85879,650.16502 L 349.85879,650.72302 C 349.10278,650.68702 348.31678,650.66902 347.50079,650.66902 C 346.20478,650.66902 345.34078,650.68702 344.90879,650.72302 L 344.90879,650.16502 C 345.90478,650.16502 346.40278,649.98502 346.40279,649.62502 C 346.40278,649.60102 346.38478,649.51702 346.34879,649.37302 L 345.39479,646.61902 L 340.94879,646.61902 L 340.12079,648.97702 C 340.09679,649.02502 340.08479,649.11502 340.08479,649.24702 C 340.08479,649.64302 340.31879,649.91902 340.78679,650.07502 L 340.80479,650.07502 C 340.98479,650.13502 341.19479,650.16502 341.43479,650.16502 L 341.43479,650.72302 C 340.28279,650.68702 339.59279,650.66902 339.36479,650.66902 C 338.96879,650.66902 338.35679,650.68702 337.52879,650.72302 L 337.52879,650.16502 C 338.54879,650.14102 339.20279,649.78102 339.49079,649.08502 C 339.51479,649.03702 339.53279,648.99502 339.54479,648.95902 L 343.27079,638.19502 C 343.34278,637.99104 343.43878,637.87704 343.55879,637.85302 C 343.59478,637.84104 343.64278,637.83504 343.70279,637.83502 C 343.88278,637.83504 344.00878,637.91904 344.08079,638.08702 L 344.08079,638.10502 L 344.08079,638.12302 L 344.11679,638.19502 M 343.16279,640.21102 L 341.14679,646.06102 L 345.19679,646.06102 L 343.16279,640.21102 M 354.62879,638.66302 L 360.98279,648.00502 L 360.98279,640.31902 C 360.98278,639.80303 360.82078,639.44903 360.49679,639.25702 C 360.18478,639.07703 359.72878,638.98703 359.12879,638.98702 L 359.12879,638.42902 C 360.38878,638.46503 361.09078,638.48303 361.23479,638.48302 C 361.37878,638.48303 362.08078,638.46503 363.34079,638.42902 L 363.34079,638.98702 C 362.17678,638.98703 361.56478,639.33503 361.50479,640.03102 L 361.48679,640.04902 L 361.48679,640.31902 L 361.48679,650.25502 C 361.48678,650.53102 361.44478,650.68102 361.36079,650.70502 L 361.34279,650.70502 C 361.30678,650.71702 361.27078,650.72302 361.23479,650.72302 C 361.15078,650.72302 361.04878,650.64502 360.92879,650.48902 L 353.58479,639.68902 C 353.53679,639.61703 353.47679,639.54503 353.40479,639.47302 L 353.40479,648.83302 C 353.40479,649.34902 353.56679,649.70302 353.89079,649.89502 C 354.20279,650.07502 354.65879,650.16502 355.25879,650.16502 L 355.25879,650.72302 C 353.99879,650.68702 353.29679,650.66902 353.15279,650.66902 C 353.00879,650.66902 352.30679,650.68702 351.04679,650.72302 L 351.04679,650.16502 C 352.21079,650.16502 352.82279,649.81702 352.88279,649.12102 C 352.89479,649.04902 352.90079,648.95302 352.90079,648.83302 L 352.90079,639.43702 C 352.90079,639.23303 352.85279,639.11303 352.75679,639.07702 L 352.75679,639.07702 C 352.70879,639.06503 352.61279,639.04703 352.46879,639.02302 C 352.10879,638.99903 351.80879,638.98703 351.56879,638.98702 L 351.04679,638.98702 L 351.04679,638.42902 L 354.10679,638.42902 C 354.33479,638.42903 354.48479,638.47703 354.55679,638.57302 L 354.57479,638.59102 L 354.57479,638.59102 L 354.59279,638.60902 L 354.61079,638.62702 L 354.62879,638.66302 M 375.94079,638.53702 L 376.28279,642.58702 L 375.83279,642.58702 C 375.71278,641.21903 375.52078,640.33103 375.25679,639.92302 L 375.25679,639.90502 C 374.95678,639.44903 374.33878,639.18503 373.40279,639.11302 C 373.17478,639.10103 372.90478,639.09503 372.59279,639.09502 C 372.04078,639.09503 371.69878,639.10703 371.56679,639.13102 C 371.36278,639.28703 371.25478,639.51503 371.24279,639.81502 L 371.24279,649.30102 C 371.24278,649.63702 371.31478,649.85302 371.45879,649.94902 C 371.68678,650.09302 372.24478,650.16502 373.13279,650.16502 L 373.85279,650.16502 L 373.85279,650.72302 C 373.36078,650.68702 372.22078,650.66902 370.43279,650.66902 C 368.65678,650.66902 367.52279,650.68702 367.03079,650.72302 L 367.03079,650.16502 L 367.75079,650.16502 C 368.80678,650.16502 369.40678,650.05102 369.55079,649.82302 C 369.58678,649.76302 369.61078,649.69102 369.62279,649.60702 C 369.63478,649.54702 369.64078,649.44502 369.64079,649.30102 L 369.64079,639.81502 C 369.64078,639.47903 369.58678,639.27503 369.47879,639.20302 L 369.46079,639.20302 L 369.44279,639.18502 L 369.42479,639.18502 C 369.38878,639.16103 369.33478,639.14303 369.26279,639.13102 C 369.14278,639.10703 368.81878,639.09503 368.29079,639.09502 C 367.06679,639.09503 366.25679,639.27503 365.86079,639.63502 L 365.78879,639.70702 L 365.77079,639.72502 L 365.77079,639.72502 C 365.44679,640.08503 365.22479,640.86503 365.10479,642.06502 C 365.08079,642.20903 365.06279,642.38303 365.05079,642.58702 L 364.60079,642.58702 L 364.94279,638.53702 L 375.94079,638.53702 M 388.1386,640.19302 L 384.1246,650.77702 C 384.05259,650.96902 383.96859,651.07702 383.8726,651.10102 L 383.8726,651.10102 C 383.82459,651.11302 383.7646,651.11902 383.6926,651.11902 C 383.5126,651.11902 383.3806,651.03502 383.2966,650.86702 C 383.2846,650.83102 383.2666,650.78302 383.2426,650.72302 L 379.0666,639.67102 C 378.9346,639.32303 378.7186,639.11303 378.4186,639.04102 C 378.2506,639.00503 377.8786,638.98703 377.3026,638.98702 L 377.3026,638.42902 C 378.5986,638.46503 379.3606,638.48303 379.5886,638.48302 C 380.8726,638.48303 381.7306,638.46503 382.1626,638.42902 L 382.1626,638.98702 C 381.1786,638.98703 380.6866,639.16103 380.6866,639.50902 C 380.6866,639.55703 380.7226,639.66503 380.7946,639.83302 L 384.2326,648.92302 L 387.5266,640.24702 C 387.58659,640.06703 387.61659,639.94703 387.6166,639.88702 C 387.61659,639.50303 387.38259,639.23303 386.9146,639.07702 L 386.8966,639.07702 C 386.72859,639.01703 386.53059,638.98703 386.3026,638.98702 L 386.3026,638.42902 C 387.23859,638.46503 387.92259,638.48303 388.3546,638.48302 C 388.96659,638.48303 389.54859,638.46503 390.1006,638.42902 L 390.1006,638.98702 C 389.09259,638.99903 388.43859,639.40103 388.1386,640.19302 M 400.9366,646.56502 L 400.9366,640.31902 C 400.93659,639.80303 400.77459,639.44903 400.4506,639.25702 C 400.13859,639.07703 399.68259,638.98703 399.0826,638.98702 L 399.0826,638.42902 C 400.37859,638.46503 401.09259,638.48303 401.2246,638.48302 C 401.34459,638.48303 402.05259,638.46503 403.3486,638.42902 L 403.3486,638.98702 C 402.23259,638.98703 401.62059,639.31103 401.5126,639.95902 C 401.50059,640.05503 401.49459,640.19903 401.4946,640.39102 L 401.4946,646.15102 C 401.49459,646.73903 401.47659,647.15303 401.4406,647.39302 C 401.26059,648.61702 400.70259,649.58902 399.7666,650.30902 L 399.7486,650.32702 C 399.06459,650.85502 398.29659,651.11902 397.4446,651.11902 C 396.1486,651.11902 395.0506,650.64502 394.1506,649.69702 C 393.3226,648.83302 392.9086,647.80703 392.9086,646.61902 L 392.9086,639.83302 C 392.9086,639.47303 392.8366,639.24503 392.6926,639.14902 C 392.5246,639.04103 392.1226,638.98703 391.4866,638.98702 L 391.0546,638.98702 L 391.0546,638.42902 C 391.4746,638.46503 392.3626,638.48303 393.7186,638.48302 C 395.0626,638.48303 395.9446,638.46503 396.3646,638.42902 L 396.3646,638.98702 L 395.9326,638.98702 C 395.1526,638.98703 394.7026,639.08903 394.5826,639.29302 C 394.5346,639.37703 394.5106,639.55703 394.5106,639.83302 L 394.5106,646.69102 C 394.5106,648.64702 395.1586,649.87102 396.4546,650.36302 C 396.7906,650.49502 397.1326,650.56102 397.4806,650.56102 C 398.47659,650.56102 399.31059,650.16502 399.9826,649.37302 C 400.61859,648.62902 400.93659,647.69303 400.9366,646.56502 M 408.2986,638.82502 L 412.2046,648.90502 L 416.1466,638.77102 C 416.21859,638.57903 416.29659,638.47103 416.3806,638.44702 C 416.44059,638.43503 416.56059,638.42903 416.7406,638.42902 L 419.7826,638.42902 L 419.7826,638.98702 L 419.3506,638.98702 C 418.57059,638.98703 418.12059,639.08903 418.0006,639.29302 C 417.95259,639.37703 417.92859,639.55703 417.9286,639.83302 L 417.9286,649.31902 C 417.92859,649.67902 418.00059,649.90702 418.1446,650.00302 L 418.1446,650.00302 C 418.32459,650.11102 418.72659,650.16502 419.3506,650.16502 L 419.7826,650.16502 L 419.7826,650.72302 C 419.33859,650.68702 418.48059,650.66902 417.2086,650.66902 C 415.92459,650.66902 415.06059,650.68702 414.6166,650.72302 L 414.6166,650.16502 L 415.0486,650.16502 C 415.82859,650.16502 416.27859,650.06302 416.3986,649.85902 C 416.44659,649.77502 416.47059,649.59502 416.4706,649.31902 L 416.4706,638.98702 L 416.4526,638.98702 L 412.0246,650.38102 C 411.94059,650.59702 411.83259,650.71102 411.7006,650.72302 C 411.55659,650.72302 411.43659,650.59102 411.3406,650.32702 L 407.0026,639.13102 L 406.9846,639.13102 L 406.9846,648.83302 C 406.9846,649.34902 407.1466,649.70302 407.4706,649.89502 C 407.7826,650.07502 408.2386,650.16502 408.8386,650.16502 L 408.8386,650.72302 C 407.5786,650.68702 406.8766,650.66902 406.7326,650.66902 C 406.5886,650.66902 405.8866,650.68702 404.6266,650.72302 L 404.6266,650.16502 C 405.7906,650.16502 406.4026,649.81702 406.4626,649.12102 C 406.4746,649.04902 406.4806,648.95302 406.4806,648.83302 L 406.4806,639.83302 C 406.4806,639.47303 406.4086,639.24503 406.2646,639.14902 C 406.0966,639.04103 405.6946,638.98703 405.0586,638.98702 L 404.6266,638.98702 L 404.6266,638.42902 L 407.6686,638.42902 C 407.9446,638.42903 408.1126,638.47703 408.1726,638.57302 L 408.1906,638.59102 L 408.1906,638.59102 L 408.2086,638.60902 L 408.2086,638.62702 C 408.2326,638.67503 408.2626,638.74103 408.2986,638.82502" style="font-size:18px;font-style:normal;font-variant:normal;font-weight:500;font-stretch:normal;line-height:100%;writing-mode:lr-tb;text-anchor:start;fill:white;fill-opacity:1;stroke:none;stroke-width:1pt;stroke-linecap:butt;stroke-linejoin:miter;stroke-opacity:1;font-family:cmr10"/>
    <rect y="657.92084" x="300.14969" height="10.076968" width="192.18217" id="rect873" style="fill:white;fill-opacity:0.67741939;fill-rule:evenodd;stroke:none;stroke-width:1pt"/>
    <path id="text874" d="M 310.40521,681.09619 L 310.40521,684.3833 L 311.77631,684.3833 C 312.32318,684.38331 312.74896,684.23877 313.05365,683.94971 C 313.36224,683.66065 313.51654,683.25635 313.51654,682.73682 C 313.51654,682.21729 313.36419,681.81495 313.05951,681.52979 C 312.75482,681.24073 312.32708,681.0962 311.77631,681.09619 L 310.40521,681.09619 M 309.22162,680.12354 L 311.77631,680.12354 C 312.75286,680.12354 313.4931,680.3462 313.99701,680.7915 C 314.50091,681.23292 314.75286,681.88135 314.75287,682.73682 C 314.75286,683.6001 314.50091,684.25245 313.99701,684.69385 C 313.497,685.13526 312.75677,685.35596 311.77631,685.35596 L 310.40521,685.35596 L 310.40521,688.87158 L 309.22162,688.87158 L 309.22162,680.12354 M 318.89545,683.06494 C 318.34857,683.06495 317.93451,683.27784 317.65326,683.70361 C 317.37201,684.1294 317.23138,684.76026 317.23138,685.59619 C 317.23138,686.42823 317.37201,687.05908 317.65326,687.48877 C 317.93451,687.91455 318.34857,688.12744 318.89545,688.12744 C 319.44622,688.12744 319.86224,687.91455 320.14349,687.48877 C 320.42474,687.05908 320.56536,686.42823 320.56537,685.59619 C 320.56536,684.76026 320.42474,684.1294 320.14349,683.70361 C 319.86224,683.27784 319.44622,683.06495 318.89545,683.06494 M 318.89545,682.15088 C 319.8056,682.15089 320.50091,682.44581 320.98138,683.03564 C 321.46575,683.62549 321.70794,684.47901 321.70795,685.59619 C 321.70794,686.71729 321.46771,687.57276 320.98724,688.1626 C 320.50677,688.74854 319.8095,689.0415 318.89545,689.0415 C 317.98529,689.0415 317.28998,688.74854 316.80951,688.1626 C 316.32904,687.57276 316.08881,686.71729 316.08881,685.59619 C 316.08881,684.47901 316.32904,683.62549 316.80951,683.03564 C 317.28998,682.44581 317.98529,682.15089 318.89545,682.15088 M 322.50482,682.30908 L 323.57123,682.30908 L 324.71381,687.61182 L 325.65131,684.2251 L 326.57123,684.2251 L 327.52045,687.61182 L 328.66302,682.30908 L 329.72943,682.30908 L 328.19427,688.87158 L 327.16302,688.87158 L 326.1142,685.27393 L 325.07123,688.87158 L 324.03998,688.87158 L 322.50482,682.30908 M 336.2392,685.3208 L 336.2392,685.84814 L 331.56927,685.84814 L 331.56927,685.8833 C 331.56927,686.59815 331.75482,687.15088 332.12592,687.5415 C 332.50091,687.93213 333.02826,688.12744 333.70795,688.12744 C 334.05169,688.12744 334.41107,688.07275 334.78607,687.96338 C 335.16107,687.854 335.56146,687.68799 335.98724,687.46533 L 335.98724,688.5376 C 335.57708,688.70557 335.1806,688.83057 334.79779,688.9126 C 334.41888,688.99854 334.05169,689.0415 333.69623,689.0415 C 332.67669,689.0415 331.87982,688.73682 331.3056,688.12744 C 330.73138,687.51416 330.44427,686.67041 330.44427,685.59619 C 330.44427,684.54932 330.72552,683.71338 331.28802,683.08838 C 331.85052,682.46339 332.60052,682.15089 333.53802,682.15088 C 334.37396,682.15089 335.03216,682.43409 335.51263,683.00049 C 335.997,683.5669 336.23919,684.34034 336.2392,685.3208 M 335.16107,685.00439 C 335.14544,684.37159 334.99505,683.89112 334.7099,683.56299 C 334.42865,683.23096 334.0224,683.06495 333.49115,683.06494 C 332.97162,683.06495 332.54388,683.23682 332.20795,683.58057 C 331.87201,683.92432 331.67279,684.40088 331.61029,685.01025 L 335.16107,685.00439 M 343.7099,683.6626 C 343.47942,683.48292 343.24505,683.35206 343.00677,683.27002 C 342.76849,683.18799 342.50677,683.14698 342.22162,683.14697 C 341.54974,683.14698 341.03607,683.35792 340.6806,683.77979 C 340.32513,684.20166 340.1474,684.81104 340.1474,685.60791 L 340.1474,688.87158 L 339.06342,688.87158 L 339.06342,682.30908 L 340.1474,682.30908 L 340.1474,683.59229 C 340.32708,683.12745 340.60247,682.77198 340.97357,682.52588 C 341.34857,682.27589 341.79193,682.15089 342.30365,682.15088 C 342.56927,682.15089 342.81732,682.18409 343.04779,682.25049 C 343.27825,682.3169 343.49896,682.42042 343.7099,682.56104 L 343.7099,683.6626 M 353.57709,688.04541 L 353.57709,691.36768 L 352.4931,691.36768 L 352.4931,682.30908 L 353.57709,682.30908 L 353.57709,683.14697 C 353.75677,682.82276 353.99505,682.57667 354.29193,682.40869 C 354.59271,682.23682 354.93841,682.15089 355.32904,682.15088 C 356.122,682.15089 356.7431,682.45753 357.19232,683.0708 C 357.64544,683.68409 357.872,684.5337 357.87201,685.61963 C 357.872,686.68604 357.64544,687.52393 357.19232,688.1333 C 356.73919,688.73877 356.1181,689.0415 355.32904,689.0415 C 354.9306,689.0415 354.58099,688.95752 354.28021,688.78955 C 353.98333,688.61768 353.74896,688.36963 353.57709,688.04541 M 356.74115,685.59619 C 356.74114,684.76026 356.60833,684.1294 356.34271,683.70361 C 356.08099,683.27784 355.69036,683.06495 355.17084,683.06494 C 354.6474,683.06495 354.25091,683.27979 353.98138,683.70947 C 353.71185,684.13526 353.57709,684.76416 353.57709,685.59619 C 353.57709,686.42432 353.71185,687.05322 353.98138,687.48291 C 354.25091,687.9126 354.6474,688.12744 355.17084,688.12744 C 355.69036,688.12744 356.08099,687.91455 356.34271,687.48877 C 356.60833,687.06299 356.74114,686.43213 356.74115,685.59619 M 362.34271,686.49268 C 362.34271,686.97705 362.4306,687.34229 362.60638,687.58838 C 362.78607,687.83447 363.04974,687.95752 363.3974,687.95752 L 364.65717,687.95752 L 364.65717,688.87158 L 363.29193,688.87158 C 362.6474,688.87158 362.1474,688.66455 361.79193,688.25049 C 361.44037,687.83643 361.26458,687.25049 361.26459,686.49268 L 361.26459,680.53369 L 359.53607,680.53369 L 359.53607,679.68994 L 362.34271,679.68994 L 362.34271,686.49268 M 369.4267,683.06494 C 368.87982,683.06495 368.46576,683.27784 368.18451,683.70361 C 367.90326,684.1294 367.76263,684.76026 367.76263,685.59619 C 367.76263,686.42823 367.90326,687.05908 368.18451,687.48877 C 368.46576,687.91455 368.87982,688.12744 369.4267,688.12744 C 369.97747,688.12744 370.39349,687.91455 370.67474,687.48877 C 370.95599,687.05908 371.09661,686.42823 371.09662,685.59619 C 371.09661,684.76026 370.95599,684.1294 370.67474,683.70361 C 370.39349,683.27784 369.97747,683.06495 369.4267,683.06494 M 369.4267,682.15088 C 370.33685,682.15089 371.03216,682.44581 371.51263,683.03564 C 371.997,683.62549 372.23919,684.47901 372.2392,685.59619 C 372.23919,686.71729 371.99896,687.57276 371.51849,688.1626 C 371.03802,688.74854 370.34075,689.0415 369.4267,689.0415 C 368.51654,689.0415 367.82123,688.74854 367.34076,688.1626 C 366.86029,687.57276 366.62006,686.71729 366.62006,685.59619 C 366.62006,684.47901 366.86029,683.62549 367.34076,683.03564 C 367.82123,682.44581 368.51654,682.15089 369.4267,682.15088 M 375.23334,688.04541 L 375.23334,691.36768 L 374.14935,691.36768 L 374.14935,682.30908 L 375.23334,682.30908 L 375.23334,683.14697 C 375.41302,682.82276 375.6513,682.57667 375.94818,682.40869 C 376.24896,682.23682 376.59466,682.15089 376.98529,682.15088 C 377.77825,682.15089 378.39935,682.45753 378.84857,683.0708 C 379.30169,683.68409 379.52825,684.5337 379.52826,685.61963 C 379.52825,686.68604 379.30169,687.52393 378.84857,688.1333 C 378.39544,688.73877 377.77435,689.0415 376.98529,689.0415 C 376.58685,689.0415 376.23724,688.95752 375.93646,688.78955 C 375.63958,688.61768 375.40521,688.36963 375.23334,688.04541 M 378.3974,685.59619 C 378.39739,684.76026 378.26458,684.1294 377.99896,683.70361 C 377.73724,683.27784 377.34661,683.06495 376.82709,683.06494 C 376.30365,683.06495 375.90716,683.27979 375.63763,683.70947 C 375.3681,684.13526 375.23334,684.76416 375.23334,685.59619 C 375.23334,686.42432 375.3681,687.05322 375.63763,687.48291 C 375.90716,687.9126 376.30365,688.12744 376.82709,688.12744 C 377.34661,688.12744 377.73724,687.91455 377.99896,687.48877 C 378.26458,687.06299 378.39739,686.43213 378.3974,685.59619 M 314.58295,697.3208 L 314.58295,697.84814 L 309.91302,697.84814 L 309.91302,697.8833 C 309.91302,698.59815 310.09857,699.15088 310.46967,699.5415 C 310.84466,699.93213 311.37201,700.12744 312.0517,700.12744 C 312.39544,700.12744 312.75482,700.07275 313.12982,699.96338 C 313.50482,699.854 313.90521,699.68799 314.33099,699.46533 L 314.33099,700.5376 C 313.92083,700.70557 313.52435,700.83057 313.14154,700.9126 C 312.76263,700.99854 312.39544,701.0415 312.03998,701.0415 C 311.02044,701.0415 310.22357,700.73682 309.64935,700.12744 C 309.07513,699.51416 308.78802,698.67041 308.78802,697.59619 C 308.78802,696.54932 309.06927,695.71338 309.63177,695.08838 C 310.19427,694.46339 310.94427,694.15089 311.88177,694.15088 C 312.71771,694.15089 313.37591,694.43409 313.85638,695.00049 C 314.34075,695.5669 314.58294,696.34034 314.58295,697.3208 M 313.50482,697.00439 C 313.48919,696.37159 313.3388,695.89112 313.05365,695.56299 C 312.7724,695.23096 312.36615,695.06495 311.8349,695.06494 C 311.31537,695.06495 310.88763,695.23682 310.5517,695.58057 C 310.21576,695.92432 310.01654,696.40088 309.95404,697.01025 L 313.50482,697.00439 M 321.83685,694.30908 L 319.48724,697.44971 L 322.06537,700.87158 L 320.81732,700.87158 L 318.89545,698.24072 L 316.97943,700.87158 L 315.73138,700.87158 L 318.30951,697.44971 L 315.9599,694.30908 L 317.15521,694.30908 L 318.89545,696.68213 L 320.62396,694.30908 L 321.83685,694.30908 M 331.90912,699.87549 L 335.92865,699.87549 L 335.92865,700.87158 L 330.6142,700.87158 L 330.6142,699.87549 C 331.34466,699.10596 331.98334,698.42627 332.53021,697.83643 C 333.07708,697.24659 333.45404,696.83057 333.66107,696.58838 C 334.05169,696.11182 334.31536,695.72706 334.45209,695.43408 C 334.5888,695.13721 334.65716,694.83448 334.65717,694.52588 C 334.65716,694.0376 334.51263,693.65479 334.22357,693.37744 C 333.93841,693.10011 333.54583,692.96143 333.04584,692.96143 C 332.69037,692.96143 332.31732,693.02589 331.9267,693.15479 C 331.53607,693.2837 331.12201,693.47901 330.68451,693.74072 L 330.68451,692.54541 C 331.08685,692.35401 331.48138,692.20948 331.8681,692.11182 C 332.25873,692.01417 332.64349,691.96534 333.0224,691.96533 C 333.87786,691.96534 334.56536,692.19386 335.0849,692.65088 C 335.60833,693.10401 335.87005,693.69971 335.87006,694.43799 C 335.87005,694.81299 335.78216,695.18799 335.60638,695.56299 C 335.4345,695.93799 335.15325,696.35206 334.76263,696.80518 C 334.54388,697.05909 334.22552,697.41065 333.80756,697.85986 C 333.39349,698.30908 332.76068,698.98096 331.90912,699.87549 M 342.74896,692.31689 L 342.74896,693.40674 C 342.50286,693.26221 342.24114,693.15284 341.96381,693.07861 C 341.68646,693.0005 341.3974,692.96143 341.09662,692.96143 C 340.34662,692.96143 339.77826,693.24464 339.39154,693.81104 C 339.00482,694.37354 338.81146,695.20362 338.81146,696.30127 C 338.99896,695.91065 339.25873,695.61182 339.59076,695.40479 C 339.92279,695.19385 340.30365,695.08838 340.73334,695.08838 C 341.57708,695.08838 342.22943,695.34815 342.69037,695.86768 C 343.15521,696.38331 343.38763,697.11573 343.38763,698.06494 C 343.38763,699.01026 343.14935,699.74268 342.67279,700.26221 C 342.19622,700.78174 341.5263,701.0415 340.66302,701.0415 C 339.6474,701.0415 338.90326,700.67822 338.4306,699.95166 C 337.95795,699.22119 337.72162,698.07276 337.72162,696.50635 C 337.72162,695.02979 338.00482,693.90479 338.57123,693.13135 C 339.14154,692.35401 339.96576,691.96534 341.04388,691.96533 C 341.33294,691.96534 341.622,691.99659 341.91107,692.05908 C 342.20013,692.11768 342.47943,692.20362 342.74896,692.31689 M 340.63959,696.01416 C 340.13568,696.01417 339.73919,696.19581 339.45013,696.55908 C 339.16107,696.92237 339.01654,697.42432 339.01654,698.06494 C 339.01654,698.70557 339.16107,699.20752 339.45013,699.5708 C 339.73919,699.93408 340.13568,700.11572 340.63959,700.11572 C 341.16302,700.11572 341.55755,699.94385 341.82318,699.6001 C 342.0888,699.25244 342.22161,698.74072 342.22162,698.06494 C 342.22161,697.38526 342.0888,696.87354 341.82318,696.52979 C 341.55755,696.18604 341.16302,696.01417 340.63959,696.01416 M 348.70795,696.18994 C 349.28216,696.34229 349.72161,696.61377 350.02631,697.00439 C 350.33099,697.39112 350.48333,697.87549 350.48334,698.45752 C 350.48333,699.26221 350.21185,699.89502 349.66888,700.35596 C 349.12982,700.81299 348.38177,701.0415 347.42474,701.0415 C 347.0224,701.0415 346.61224,701.00439 346.19427,700.93018 C 345.7763,700.85596 345.36615,700.74854 344.96381,700.60791 L 344.96381,699.43018 C 345.36224,699.63721 345.75482,699.7915 346.14154,699.89307 C 346.52826,699.99463 346.91302,700.04541 347.29584,700.04541 C 347.94427,700.04541 348.44232,699.89893 348.78998,699.60596 C 349.13763,699.31299 349.31146,698.89112 349.31146,698.34033 C 349.31146,697.83252 349.13763,697.43018 348.78998,697.1333 C 348.44232,696.83252 347.97161,696.68213 347.37787,696.68213 L 346.47552,696.68213 L 346.47552,695.70947 L 347.37787,695.70947 C 347.92083,695.70948 348.34466,695.59034 348.64935,695.35205 C 348.95404,695.11378 349.10638,694.78174 349.10638,694.35596 C 349.10638,693.90675 348.9638,693.563 348.67865,693.32471 C 348.3974,693.08253 347.99505,692.96143 347.47162,692.96143 C 347.12396,692.96143 346.76458,693.0005 346.39349,693.07861 C 346.0224,693.15675 345.63373,693.27393 345.22748,693.43018 L 345.22748,692.34033 C 345.70013,692.21534 346.12005,692.12159 346.48724,692.05908 C 346.85833,691.99659 347.18646,691.96534 347.47162,691.96533 C 348.32318,691.96534 349.00286,692.18018 349.51068,692.60986 C 350.02239,693.03565 350.27825,693.60206 350.27826,694.30908 C 350.27825,694.78956 350.14349,695.18995 349.87396,695.51025 C 349.60833,695.83057 349.21966,696.05713 348.70795,696.18994 M 357.18646,692.31689 L 357.18646,693.40674 C 356.94036,693.26221 356.67864,693.15284 356.40131,693.07861 C 356.12396,693.0005 355.8349,692.96143 355.53412,692.96143 C 354.78412,692.96143 354.21576,693.24464 353.82904,693.81104 C 353.44232,694.37354 353.24896,695.20362 353.24896,696.30127 C 353.43646,695.91065 353.69623,695.61182 354.02826,695.40479 C 354.36029,695.19385 354.74115,695.08838 355.17084,695.08838 C 356.01458,695.08838 356.66693,695.34815 357.12787,695.86768 C 357.59271,696.38331 357.82513,697.11573 357.82513,698.06494 C 357.82513,699.01026 357.58685,699.74268 357.11029,700.26221 C 356.63372,700.78174 355.9638,701.0415 355.10052,701.0415 C 354.0849,701.0415 353.34076,700.67822 352.8681,699.95166 C 352.39545,699.22119 352.15912,698.07276 352.15912,696.50635 C 352.15912,695.02979 352.44232,693.90479 353.00873,693.13135 C 353.57904,692.35401 354.40326,691.96534 355.48138,691.96533 C 355.77044,691.96534 356.0595,691.99659 356.34857,692.05908 C 356.63763,692.11768 356.91693,692.20362 357.18646,692.31689 M 355.07709,696.01416 C 354.57318,696.01417 354.17669,696.19581 353.88763,696.55908 C 353.59857,696.92237 353.45404,697.42432 353.45404,698.06494 C 353.45404,698.70557 353.59857,699.20752 353.88763,699.5708 C 354.17669,699.93408 354.57318,700.11572 355.07709,700.11572 C 355.60052,700.11572 355.99505,699.94385 356.26068,699.6001 C 356.5263,699.25244 356.65911,698.74072 356.65912,698.06494 C 356.65911,697.38526 356.5263,696.87354 356.26068,696.52979 C 355.99505,696.18604 355.60052,696.01417 355.07709,696.01416 M 363.14545,696.18994 C 363.71966,696.34229 364.15911,696.61377 364.46381,697.00439 C 364.76849,697.39112 364.92083,697.87549 364.92084,698.45752 C 364.92083,699.26221 364.64935,699.89502 364.10638,700.35596 C 363.56732,700.81299 362.81927,701.0415 361.86224,701.0415 C 361.4599,701.0415 361.04974,701.00439 360.63177,700.93018 C 360.2138,700.85596 359.80365,700.74854 359.40131,700.60791 L 359.40131,699.43018 C 359.79974,699.63721 360.19232,699.7915 360.57904,699.89307 C 360.96576,699.99463 361.35052,700.04541 361.73334,700.04541 C 362.38177,700.04541 362.87982,699.89893 363.22748,699.60596 C 363.57513,699.31299 363.74896,698.89112 363.74896,698.34033 C 363.74896,697.83252 363.57513,697.43018 363.22748,697.1333 C 362.87982,696.83252 362.40911,696.68213 361.81537,696.68213 L 360.91302,696.68213 L 360.91302,695.70947 L 361.81537,695.70947 C 362.35833,695.70948 362.78216,695.59034 363.08685,695.35205 C 363.39154,695.11378 363.54388,694.78174 363.54388,694.35596 C 363.54388,693.90675 363.4013,693.563 363.11615,693.32471 C 362.8349,693.08253 362.43255,692.96143 361.90912,692.96143 C 361.56146,692.96143 361.20208,693.0005 360.83099,693.07861 C 360.4599,693.15675 360.07123,693.27393 359.66498,693.43018 L 359.66498,692.34033 C 360.13763,692.21534 360.55755,692.12159 360.92474,692.05908 C 361.29583,691.99659 361.62396,691.96534 361.90912,691.96533 C 362.76068,691.96534 363.44036,692.18018 363.94818,692.60986 C 364.45989,693.03565 364.71575,693.60206 364.71576,694.30908 C 364.71575,694.78956 364.58099,695.18995 364.31146,695.51025 C 364.04583,695.83057 363.65716,696.05713 363.14545,696.18994 M 371.62396,692.31689 L 371.62396,693.40674 C 371.37786,693.26221 371.11614,693.15284 370.83881,693.07861 C 370.56146,693.0005 370.2724,692.96143 369.97162,692.96143 C 369.22162,692.96143 368.65326,693.24464 368.26654,693.81104 C 367.87982,694.37354 367.68646,695.20362 367.68646,696.30127 C 367.87396,695.91065 368.13373,695.61182 368.46576,695.40479 C 368.79779,695.19385 369.17865,695.08838 369.60834,695.08838 C 370.45208,695.08838 371.10443,695.34815 371.56537,695.86768 C 372.03021,696.38331 372.26263,697.11573 372.26263,698.06494 C 372.26263,699.01026 372.02435,699.74268 371.54779,700.26221 C 371.07122,700.78174 370.4013,701.0415 369.53802,701.0415 C 368.5224,701.0415 367.77826,700.67822 367.3056,699.95166 C 366.83295,699.22119 366.59662,698.07276 366.59662,696.50635 C 366.59662,695.02979 366.87982,693.90479 367.44623,693.13135 C 368.01654,692.35401 368.84076,691.96534 369.91888,691.96533 C 370.20794,691.96534 370.497,691.99659 370.78607,692.05908 C 371.07513,692.11768 371.35443,692.20362 371.62396,692.31689 M 369.51459,696.01416 C 369.01068,696.01417 368.61419,696.19581 368.32513,696.55908 C 368.03607,696.92237 367.89154,697.42432 367.89154,698.06494 C 367.89154,698.70557 368.03607,699.20752 368.32513,699.5708 C 368.61419,699.93408 369.01068,700.11572 369.51459,700.11572 C 370.03802,700.11572 370.43255,699.94385 370.69818,699.6001 C 370.9638,699.25244 371.09661,698.74072 371.09662,698.06494 C 371.09661,697.38526 370.9638,696.87354 370.69818,696.52979 C 370.43255,696.18604 370.03802,696.01417 369.51459,696.01416 M 375.22162,699.87549 L 379.24115,699.87549 L 379.24115,700.87158 L 373.9267,700.87158 L 373.9267,699.87549 C 374.65716,699.10596 375.29584,698.42627 375.84271,697.83643 C 376.38958,697.24659 376.76654,696.83057 376.97357,696.58838 C 377.36419,696.11182 377.62786,695.72706 377.76459,695.43408 C 377.9013,695.13721 377.96966,694.83448 377.96967,694.52588 C 377.96966,694.0376 377.82513,693.65479 377.53607,693.37744 C 377.25091,693.10011 376.85833,692.96143 376.35834,692.96143 C 376.00287,692.96143 375.62982,693.02589 375.2392,693.15479 C 374.84857,693.2837 374.43451,693.47901 373.99701,693.74072 L 373.99701,692.54541 C 374.39935,692.35401 374.79388,692.20948 375.1806,692.11182 C 375.57123,692.01417 375.95599,691.96534 376.3349,691.96533 C 377.19036,691.96534 377.87786,692.19386 378.3974,692.65088 C 378.92083,693.10401 379.18255,693.69971 379.18256,694.43799 C 379.18255,694.81299 379.09466,695.18799 378.91888,695.56299 C 378.747,695.93799 378.46575,696.35206 378.07513,696.80518 C 377.85638,697.05909 377.53802,697.41065 377.12006,697.85986 C 376.70599,698.30908 376.07318,698.98096 375.22162,699.87549 M 383.8642,696.71729 C 383.33685,696.71729 382.92865,696.86573 382.63959,697.1626 C 382.35443,697.45557 382.21185,697.87159 382.21185,698.41064 C 382.21185,698.94971 382.35638,699.36963 382.64545,699.67041 C 382.93841,699.96729 383.34466,700.11572 383.8642,700.11572 C 384.39544,700.11572 384.80365,699.96924 385.08881,699.67627 C 385.37786,699.3794 385.52239,698.95752 385.5224,698.41064 C 385.52239,697.87549 385.37591,697.45948 385.08295,697.1626 C 384.79388,696.86573 384.38763,696.71729 383.8642,696.71729 M 382.83295,696.2251 C 382.32904,696.0962 381.93451,695.85596 381.64935,695.50439 C 381.3681,695.15284 381.22748,694.72901 381.22748,694.23291 C 381.22748,693.5376 381.4638,692.98682 381.93646,692.58057 C 382.40912,692.17042 383.05169,691.96534 383.8642,691.96533 C 384.6806,691.96534 385.32513,692.17042 385.79779,692.58057 C 386.27044,692.98682 386.50677,693.5376 386.50677,694.23291 C 386.50677,694.72901 386.36419,695.15284 386.07904,695.50439 C 385.79778,695.85596 385.40521,696.0962 384.90131,696.2251 C 385.48724,696.35401 385.9345,696.61377 386.2431,697.00439 C 386.5556,697.39502 386.71185,697.90088 386.71185,698.52197 C 386.71185,699.31104 386.45989,699.92822 385.95599,700.37354 C 385.45208,700.81885 384.75482,701.0415 383.8642,701.0415 C 382.97357,701.0415 382.2763,700.8208 381.7724,700.37939 C 381.2724,699.93408 381.0224,699.31885 381.0224,698.53369 C 381.0224,697.90869 381.1767,697.40088 381.48529,697.01025 C 381.79779,696.61573 382.24701,696.35401 382.83295,696.2251 M 382.40521,694.34424 C 382.40521,694.81299 382.53021,695.17042 382.78021,695.4165 C 383.03021,695.6626 383.39154,695.78565 383.8642,695.78564 C 384.34076,695.78565 384.70404,695.6626 384.95404,695.4165 C 385.20404,695.17042 385.32904,694.81299 385.32904,694.34424 C 385.32904,693.86768 385.20404,693.5044 384.95404,693.25439 C 384.70794,693.0044 384.34466,692.8794 383.8642,692.87939 C 383.39154,692.8794 383.03021,693.00636 382.78021,693.26025 C 382.53021,693.51026 382.40521,693.87159 382.40521,694.34424 M 396.27435,699.87549 L 398.1142,699.87549 L 398.1142,693.18994 L 396.13373,693.63525 L 396.13373,692.55713 L 398.10248,692.12354 L 399.28607,692.12354 L 399.28607,699.87549 L 401.10248,699.87549 L 401.10248,700.87158 L 396.27435,700.87158 L 396.27435,699.87549 M 402.54974,700.51416 L 402.54974,699.13135 C 402.90521,699.44776 403.2724,699.68604 403.65131,699.84619 C 404.03021,700.00244 404.42279,700.08057 404.82904,700.08057 C 405.38763,700.08057 405.7763,699.93604 405.99506,699.64697 C 406.21771,699.35401 406.32904,698.81104 406.32904,698.01807 L 406.32904,693.11963 L 404.09662,693.11963 L 404.09662,692.12354 L 407.51263,692.12354 L 407.51263,698.01807 C 407.51263,699.11963 407.3056,699.89893 406.89154,700.35596 C 406.48138,700.81299 405.79388,701.0415 404.82904,701.0415 C 404.45404,701.0415 404.08099,700.99854 403.7099,700.9126 C 403.3388,700.82666 402.95209,700.69385 402.54974,700.51416 M 414.15717,695.14697 L 414.15717,691.75439 L 415.23529,691.75439 L 415.23529,700.87158 L 414.15717,700.87158 L 414.15717,700.04541 C 413.97747,700.36963 413.73724,700.61768 413.43646,700.78955 C 413.13958,700.95752 412.79583,701.0415 412.40521,701.0415 C 411.61224,701.0415 410.98724,700.73486 410.53021,700.12158 C 410.07709,699.5044 409.85052,698.65479 409.85052,697.57275 C 409.85052,696.50635 410.07904,695.67042 410.53607,695.06494 C 410.9931,694.45557 411.61615,694.15089 412.40521,694.15088 C 412.79974,694.15089 413.1474,694.23682 413.44818,694.40869 C 413.74896,694.57667 413.98529,694.82276 414.15717,695.14697 M 410.98724,697.59619 C 410.98724,698.43213 411.12005,699.06299 411.38568,699.48877 C 411.6513,699.91455 412.04388,700.12744 412.56342,700.12744 C 413.08294,700.12744 413.47747,699.9126 413.74701,699.48291 C 414.02044,699.05322 414.15716,698.42432 414.15717,697.59619 C 414.15716,696.76416 414.02044,696.13526 413.74701,695.70947 C 413.47747,695.27979 413.08294,695.06495 412.56342,695.06494 C 412.04388,695.06495 411.6513,695.27784 411.38568,695.70361 C 411.12005,696.1294 410.98724,696.76026 410.98724,697.59619 M 422.04974,694.5376 L 422.04974,695.59229 C 421.74114,695.4126 421.4306,695.27784 421.1181,695.18799 C 420.8056,695.09815 420.48724,695.05323 420.16302,695.05322 C 419.67474,695.05323 419.30951,695.13331 419.06732,695.29346 C 418.82904,695.44971 418.7099,695.68995 418.7099,696.01416 C 418.7099,696.30713 418.79974,696.52588 418.97943,696.67041 C 419.15912,696.81495 419.60638,696.95557 420.32123,697.09229 L 420.75482,697.17432 C 421.28997,697.27588 421.69427,697.47901 421.96771,697.78369 C 422.24505,698.08838 422.38372,698.48487 422.38373,698.97314 C 422.38372,699.62158 422.15325,700.1294 421.69232,700.49658 C 421.23138,700.85986 420.59076,701.0415 419.77045,701.0415 C 419.44622,701.0415 419.10638,701.00635 418.75092,700.93604 C 418.39544,700.86963 418.01068,700.76807 417.59662,700.63135 L 417.59662,699.51807 C 417.99896,699.7251 418.38373,699.88135 418.75092,699.98682 C 419.1181,700.08838 419.46576,700.13916 419.79388,700.13916 C 420.27044,700.13916 420.63958,700.04346 420.90131,699.85205 C 421.16302,699.65674 421.29388,699.38526 421.29388,699.0376 C 421.29388,698.5376 420.81536,698.1919 419.85834,698.00049 L 419.81146,697.98877 L 419.40717,697.90674 C 418.78607,697.78565 418.33294,697.58252 418.04779,697.29736 C 417.76263,697.0083 417.62005,696.61573 417.62006,696.11963 C 417.62005,695.49073 417.83295,695.00635 418.25873,694.6665 C 418.68451,694.32276 419.29193,694.15089 420.08099,694.15088 C 420.43255,694.15089 420.77044,694.18409 421.09467,694.25049 C 421.41888,694.31299 421.73724,694.4087 422.04974,694.5376 M 308.06732,716.12354 L 309.22162,716.12354 L 310.05951,723.2251 L 311.0556,718.52588 L 312.29193,718.52588 L 313.29974,723.23682 L 314.13763,716.12354 L 315.29193,716.12354 L 313.98529,724.87158 L 312.86615,724.87158 L 311.6767,719.67432 L 310.4931,724.87158 L 309.37396,724.87158 L 308.06732,716.12354 M 318.89545,717.1665 L 317.6474,721.64307 L 320.14349,721.64307 L 318.89545,717.1665 M 318.1806,716.12354 L 319.61615,716.12354 L 322.29388,724.87158 L 321.06927,724.87158 L 320.42474,722.59229 L 317.36029,722.59229 L 316.72748,724.87158 L 315.50287,724.87158 L 318.1806,716.12354 M 326.95795,720.74072 C 327.26263,720.81885 327.52239,720.96729 327.73724,721.18604 C 327.95208,721.40088 328.21966,721.83252 328.53998,722.48096 L 329.72943,724.87158 L 328.45795,724.87158 L 327.41498,722.6626 C 327.11419,722.03369 326.84271,721.6294 326.60052,721.44971 C 326.36224,721.26612 326.04974,721.17432 325.66302,721.17432 L 324.53217,721.17432 L 324.53217,724.87158 L 323.34271,724.87158 L 323.34271,716.12354 L 325.78021,716.12354 C 326.74115,716.12354 327.47747,716.34034 327.9892,716.77393 C 328.50091,717.20753 328.75677,717.83448 328.75677,718.65479 C 328.75677,719.23292 328.59857,719.70557 328.28217,720.07275 C 327.96966,720.43604 327.52825,720.6587 326.95795,720.74072 M 324.53217,717.09619 L 324.53217,720.20166 L 325.82709,720.20166 C 326.39349,720.20166 326.81536,720.07471 327.09271,719.8208 C 327.37005,719.5669 327.50872,719.17823 327.50873,718.65479 C 327.50872,718.15089 327.36029,717.76612 327.06342,717.50049 C 326.77044,717.23096 326.34271,717.0962 325.78021,717.09619 L 324.53217,717.09619 M 330.53802,716.12354 L 332.03802,716.12354 L 334.99115,723.32471 L 334.99115,716.12354 L 336.13373,716.12354 L 336.13373,724.87158 L 334.63373,724.87158 L 331.6806,717.67041 L 331.6806,724.87158 L 330.53802,724.87158 L 330.53802,716.12354 M 338.12006,716.12354 L 342.97748,716.12354 L 342.97748,717.11963 L 341.14349,717.11963 L 341.14349,723.87549 L 342.97748,723.87549 L 342.97748,724.87158 L 338.12006,724.87158 L 338.12006,723.87549 L 339.95404,723.87549 L 339.95404,717.11963 L 338.12006,717.11963 L 338.12006,716.12354 M 344.97552,716.12354 L 346.47552,716.12354 L 349.42865,723.32471 L 349.42865,716.12354 L 350.57123,716.12354 L 350.57123,724.87158 L 349.07123,724.87158 L 346.1181,717.67041 L 346.1181,724.87158 L 344.97552,724.87158 L 344.97552,716.12354 M 357.84857,724.15088 C 357.53216,724.44385 357.17474,724.6665 356.77631,724.81885 C 356.38177,724.96729 355.95404,725.0415 355.4931,725.0415 C 354.38373,725.0415 353.52044,724.64502 352.90326,723.85205 C 352.28607,723.05518 351.97748,721.93994 351.97748,720.50635 C 351.97748,719.07667 352.28998,717.96339 352.91498,717.1665 C 353.53998,716.36573 354.40912,715.96534 355.5224,715.96533 C 355.88958,715.96534 356.24115,716.01808 356.57709,716.12354 C 356.91302,716.22511 357.23724,716.38136 357.54974,716.59229 L 357.54974,717.80518 C 357.23333,717.5044 356.90911,717.2837 356.57709,717.14307 C 356.24505,716.99854 355.89349,716.92628 355.5224,716.92627 C 354.75287,716.92628 354.17474,717.22511 353.78802,717.82275 C 353.40521,718.41651 353.2138,719.31104 353.21381,720.50635 C 353.2138,721.72119 353.39935,722.62158 353.77045,723.20752 C 354.14544,723.78955 354.71966,724.08057 355.4931,724.08057 C 355.75482,724.08057 355.98333,724.05127 356.17865,723.99268 C 356.37786,723.93018 356.55755,723.83447 356.71771,723.70557 L 356.71771,721.35596 L 355.44623,721.35596 L 355.44623,720.3833 L 357.84857,720.3833 L 357.84857,724.15088 M 368.68256,718.64307 L 370.15912,718.64307 L 370.15912,720.41846 L 368.68256,720.41846 L 368.68256,718.64307 M 368.68256,723.08447 L 370.15912,723.08447 L 370.15912,724.87158 L 368.68256,724.87158 L 368.68256,723.08447 M 382.45209,724.04541 L 382.45209,727.36768 L 381.3681,727.36768 L 381.3681,718.30908 L 382.45209,718.30908 L 382.45209,719.14697 C 382.63177,718.82276 382.87005,718.57667 383.16693,718.40869 C 383.46771,718.23682 383.81341,718.15089 384.20404,718.15088 C 384.997,718.15089 385.6181,718.45753 386.06732,719.0708 C 386.52044,719.68409 386.747,720.5337 386.74701,721.61963 C 386.747,722.68604 386.52044,723.52393 386.06732,724.1333 C 385.61419,724.73877 384.9931,725.0415 384.20404,725.0415 C 383.8056,725.0415 383.45599,724.95752 383.15521,724.78955 C 382.85833,724.61768 382.62396,724.36963 382.45209,724.04541 M 385.61615,721.59619 C 385.61614,720.76026 385.48333,720.1294 385.21771,719.70361 C 384.95599,719.27784 384.56536,719.06495 384.04584,719.06494 C 383.5224,719.06495 383.12591,719.27979 382.85638,719.70947 C 382.58685,720.13526 382.45209,720.76416 382.45209,721.59619 C 382.45209,722.42432 382.58685,723.05322 382.85638,723.48291 C 383.12591,723.9126 383.5224,724.12744 384.04584,724.12744 C 384.56536,724.12744 384.95599,723.91455 385.21771,723.48877 C 385.48333,723.06299 385.61614,722.43213 385.61615,721.59619 M 391.21771,722.49268 C 391.21771,722.97705 391.3056,723.34229 391.48138,723.58838 C 391.66107,723.83447 391.92474,723.95752 392.2724,723.95752 L 393.53217,723.95752 L 393.53217,724.87158 L 392.16693,724.87158 C 391.5224,724.87158 391.0224,724.66455 390.66693,724.25049 C 390.31537,723.83643 390.13958,723.25049 390.13959,722.49268 L 390.13959,716.53369 L 388.41107,716.53369 L 388.41107,715.68994 L 391.21771,715.68994 L 391.21771,722.49268 M 398.3017,719.06494 C 397.75482,719.06495 397.34076,719.27784 397.05951,719.70361 C 396.77826,720.1294 396.63763,720.76026 396.63763,721.59619 C 396.63763,722.42823 396.77826,723.05908 397.05951,723.48877 C 397.34076,723.91455 397.75482,724.12744 398.3017,724.12744 C 398.85247,724.12744 399.26849,723.91455 399.54974,723.48877 C 399.83099,723.05908 399.97161,722.42823 399.97162,721.59619 C 399.97161,720.76026 399.83099,720.1294 399.54974,719.70361 C 399.26849,719.27784 398.85247,719.06495 398.3017,719.06494 M 398.3017,718.15088 C 399.21185,718.15089 399.90716,718.44581 400.38763,719.03564 C 400.872,719.62549 401.11419,720.47901 401.1142,721.59619 C 401.11419,722.71729 400.87396,723.57276 400.39349,724.1626 C 399.91302,724.74854 399.21575,725.0415 398.3017,725.0415 C 397.39154,725.0415 396.69623,724.74854 396.21576,724.1626 C 395.73529,723.57276 395.49506,722.71729 395.49506,721.59619 C 395.49506,720.47901 395.73529,719.62549 396.21576,719.03564 C 396.69623,718.44581 397.39154,718.15089 398.3017,718.15088 M 404.10834,724.04541 L 404.10834,727.36768 L 403.02435,727.36768 L 403.02435,718.30908 L 404.10834,718.30908 L 404.10834,719.14697 C 404.28802,718.82276 404.5263,718.57667 404.82318,718.40869 C 405.12396,718.23682 405.46966,718.15089 405.86029,718.15088 C 406.65325,718.15089 407.27435,718.45753 407.72357,719.0708 C 408.17669,719.68409 408.40325,720.5337 408.40326,721.61963 C 408.40325,722.68604 408.17669,723.52393 407.72357,724.1333 C 407.27044,724.73877 406.64935,725.0415 405.86029,725.0415 C 405.46185,725.0415 405.11224,724.95752 404.81146,724.78955 C 404.51458,724.61768 404.28021,724.36963 404.10834,724.04541 M 407.2724,721.59619 C 407.27239,720.76026 407.13958,720.1294 406.87396,719.70361 C 406.61224,719.27784 406.22161,719.06495 405.70209,719.06494 C 405.17865,719.06495 404.78216,719.27979 404.51263,719.70947 C 404.2431,720.13526 404.10834,720.76416 404.10834,721.59619 C 404.10834,722.42432 404.2431,723.05322 404.51263,723.48291 C 404.78216,723.9126 405.17865,724.12744 405.70209,724.12744 C 406.22161,724.12744 406.61224,723.91455 406.87396,723.48877 C 407.13958,723.06299 407.27239,722.43213 407.2724,721.59619 M 417.84857,718.30908 L 420.60834,718.30908 L 420.60834,724.03369 L 422.74701,724.03369 L 422.74701,724.87158 L 417.39154,724.87158 L 417.39154,724.03369 L 419.53021,724.03369 L 419.53021,719.14697 L 417.84857,719.14697 L 417.84857,718.30908 M 419.53021,715.75439 L 420.60834,715.75439 L 420.60834,717.11963 L 419.53021,717.11963 L 419.53021,715.75439 M 427.16498,716.4458 L 427.16498,718.30908 L 429.6142,718.30908 L 429.6142,719.14697 L 427.16498,719.14697 L 427.16498,722.70947 C 427.16497,723.19385 427.25677,723.53174 427.44037,723.72314 C 427.62396,723.91455 427.94427,724.01025 428.40131,724.01025 L 429.6142,724.01025 L 429.6142,724.87158 L 428.29584,724.87158 C 427.48724,724.87158 426.91693,724.70947 426.5849,724.38525 C 426.25287,724.06104 426.08685,723.50244 426.08685,722.70947 L 426.08685,719.14697 L 424.3349,719.14697 L 424.3349,718.30908 L 426.08685,718.30908 L 426.08685,716.4458 L 427.16498,716.4458 M 441.02826,716.12354 L 442.21771,716.12354 L 442.21771,719.96143 L 442.09467,722.05322 L 441.15131,722.05322 L 441.02826,719.96143 L 441.02826,716.12354 M 441.02826,723.3833 L 442.21771,723.3833 L 442.21771,724.87158 L 441.02826,724.87158 L 441.02826,723.3833" style="font-size:12px;font-style:normal;font-variant:normal;font-weight:normal;font-stretch:normal;line-height:100%;writing-mode:lr-tb;text-anchor:start;fill:white;fill-opacity:1;stroke:none;stroke-width:1pt;stroke-linecap:butt;stroke-linejoin:miter;stroke-opacity:1;font-family:Bitstream Vera Sans Mono"/>
    <path sodipodi:nodetypes="ccccccccccc" id="path883" d="M 356.27463,334.72329 C 357.88635,334.80812 358.86187,335.59277 361.10979,334.97777 C 362.04289,334.46881 362.78513,333.8326 363.90909,333.45088 C 370.82251,333.62053 371.62837,341.74275 370.52562,346.17497 C 367.93839,349.61048 365.16029,347.1929 362.3822,347.70187 C 362.67909,350.01342 362.21254,351.17978 361.36427,352.53702 C 360.55841,352.89753 360.00703,352.62185 359.32841,352.28254 C 360.04944,351.15858 360.64323,349.84376 360.60082,348.97428 C 358.58618,349.48324 355.99894,348.78341 354.55688,348.52893 C 356.95325,343.75739 356.4867,342.54861 354.23878,341.08534 C 353.58137,339.02828 353.81464,336.0169 356.27463,334.72329 z " style="fill:#c60000;fill-opacity:0.79838712;fill-rule:evenodd;stroke:black;stroke-width:0.25"/>
    <path id="text884" d="M -255.84859,-332.28877 C -254.97259,-332.81677 -254.68459,-333.24878 -254.68459,-334.05277 C -254.68459,-335.38477 -255.72859,-336.32077 -257.24059,-336.32077 C -258.74059,-336.32077 -259.79659,-335.38477 -259.79659,-334.05277 C -259.79659,-333.26078 -259.50859,-332.82877 -258.64459,-332.28877 C -259.61659,-331.82078 -260.09659,-331.11277 -260.09659,-330.17677 C -260.09659,-328.61678 -258.92059,-327.53677 -257.24059,-327.53677 C -255.56059,-327.53677 -254.38459,-328.61678 -254.38459,-330.16477 C -254.38459,-331.11277 -254.86459,-331.82078 -255.84859,-332.28877 M -257.24059,-335.38477 C -256.34059,-335.38477 -255.76459,-334.85677 -255.76459,-334.02877 C -255.76459,-333.23678 -256.35259,-332.70877 -257.24059,-332.70877 C -258.12859,-332.70877 -258.71659,-333.23678 -258.71659,-334.04077 C -258.71659,-334.85677 -258.12859,-335.38477 -257.24059,-335.38477 M -257.24059,-331.82077 C -256.18459,-331.82077 -255.46459,-331.14877 -255.46459,-330.15277 C -255.46459,-329.14478 -256.18459,-328.47277 -257.26459,-328.47277 C -258.29659,-328.47277 -259.01659,-329.15678 -259.01659,-330.15277 C -259.01659,-331.14877 -258.29659,-331.82077 -257.24059,-331.82077 M -250.5609,-336.32077 C -251.3529,-336.32077 -252.0729,-335.97277 -252.5169,-335.38477 C -253.0689,-334.64078 -253.3449,-333.50077 -253.3449,-331.92877 C -253.3449,-329.06078 -252.3849,-327.53677 -250.5609,-327.53677 C -248.7609,-327.53677 -247.7769,-329.06078 -247.7769,-331.85677 C -247.7769,-333.51277 -248.0409,-334.61678 -248.6049,-335.38477 C -249.0489,-335.98477 -249.7569,-336.32077 -250.5609,-336.32077 M -250.5609,-335.38477 C -249.4209,-335.38477 -248.8569,-334.23277 -248.8569,-331.95277 C -248.8569,-329.54078 -249.4089,-328.41277 -250.5849,-328.41277 C -251.7009,-328.41277 -252.2649,-329.58878 -252.2649,-331.91677 C -252.2649,-334.24477 -251.7009,-335.38477 -250.5609,-335.38477" style="font-size:12px;font-style:normal;font-weight:normal;fill:#c40000;fill-opacity:0.83064515;stroke:none;stroke-width:1pt;stroke-linecap:butt;stroke-linejoin:miter;stroke-opacity:1;font-family:helvetica" transform="matrix(-1.1493,0.146584,-0.146584,-1.1493,0,0)"/>
  </g>
</svg>